<?xml version="1.0" encoding="UTF-8"?>
<svg xmlns="http://www.w3.org/2000/svg" viewBox="0 0 16 16">
    <path style="line-height:normal;text-indent:0;text-align:start;text-decoration-line:none;text-decoration-style:solid;text-decoration-color:#000;text-transform:none;block-progression:tb;isolation:auto;mix-blend-mode:normal" d="M 7.6972656 3.0195312 C 6.8674728 3.0102426 6.2426559 3.049209 5.7167969 3.3203125 C 5.5019879 3.4310734 5.3501813 3.5719024 5.2324219 3.734375 C 5.1735419 3.815611 5.1144071 3.8895443 5.0839844 4.0605469 C 5.0687734 4.1460479 5.0596153 4.2797334 5.1445312 4.4316406 C 5.2294472 4.5835478 5.4140746 4.6827167 5.5371094 4.7011719 L 5.5390625 4.7011719 L 5.5410156 4.7011719 C 5.6327536 4.7141009 5.8312894 4.7951209 5.8652344 4.84375 L 5.8671875 4.84375 L 5.8671875 4.8457031 C 5.9487751 4.961393 5.9795323 5.0464688 5.9921875 5.09375 C 6.0048427 5.1410312 6 5.1074219 6 5.1074219 L 6 5.1328125 L 6.0019531 5.1582031 C 6.0019531 5.1582031 6.0324798 5.6465323 6.0117188 6.1542969 C 6.0013347 6.4081783 5.9763979 6.6667885 5.9375 6.84375 C 5.8991496 7.018221 5.8017064 7.0609062 5.9414062 6.9804688 C 5.8421856 7.0378225 5.8793993 7.0612652 5.7558594 7.0019531 C 5.6310361 6.9420249 5.3078442 6.6676668 4.8847656 5.9023438 C 4.458877 5.1322182 4.1476767 4.7356806 4.078125 4.6484375 C 4.0514726 4.5711125 3.9846914 4.4087715 3.7597656 4.2363281 C 3.4629939 4.009144 3.1640625 4.0039062 3.1640625 4.0039062 L 3.1367188 4 L 0.95703125 4.0019531 L 0.95117188 4.0019531 C 0.95117188 4.0019531 0.82844839 4.0037532 0.68359375 4.0351562 C 0.53912958 4.0664793 0.33085782 4.1030102 0.13671875 4.3457031 C 0.13671875 4.3457031 0.13476562 4.3457031 0.13476562 4.3457031 C -0.065938965 4.5973223 -0.032419215 4.8281807 -0.013671875 4.9707031 C 0.005199105 5.1141725 0.046875 5.2265625 0.046875 5.2265625 L 0.0546875 5.25 L 0.064453125 5.2714844 C 0.064453125 5.2714844 1.7340388 8.8301024 3.7265625 11.001953 C 5.5982678 13.037769 7.765625 13 7.765625 13 L 8.9960938 13 L 9.0253906 12.996094 C 9.0253906 12.996094 9.4189901 13.016684 9.75 12.644531 C 9.9185967 12.454688 9.9553002 12.271526 9.9785156 12.138672 C 10.001731 12.005817 10 11.894531 10 11.894531 L 10 11.927734 C 10 11.927734 10.014927 11.66697 10.085938 11.398438 C 10.121438 11.264171 10.171728 11.13433 10.21875 11.056641 C 10.24253 11.017351 10.240593 11.026665 10.251953 11.015625 C 10.334913 11.077515 10.476111 11.222385 10.626953 11.404297 C 10.928637 11.76812 11.272389 12.272331 11.755859 12.619141 C 12.102028 12.867625 12.430257 12.977551 12.679688 13.017578 C 12.846496 13.044349 12.970608 13.037627 13.052734 13.029297 L 14.75 13 L 14.767578 12.998047 C 14.767578 12.998047 15.117009 12.990747 15.466797 12.769531 C 15.641691 12.65891 15.840701 12.461147 15.908203 12.175781 C 15.975703 11.890415 15.899303 11.583307 15.734375 11.296875 L 15.732422 11.294922 C 15.789872 11.393002 15.723825 11.265073 15.671875 11.164062 C 15.619989 11.063148 15.54192 10.925443 15.427734 10.755859 C 15.199364 10.416692 14.824071 9.9471023 14.203125 9.34375 C 13.911894 9.0606343 13.723694 8.9043014 13.603516 8.7949219 C 13.641056 8.7472149 13.643136 8.7425149 13.777344 8.5859375 C 13.988229 8.3399073 14.296348 7.9768779 14.685547 7.4335938 C 15.155324 6.7783514 15.496816 6.2439163 15.714844 5.7988281 C 15.932872 5.3537399 16.109945 4.9894349 15.914062 4.5351562 C 15.807203 4.2875807 15.620783 4.1947065 15.482422 4.1367188 C 15.344061 4.0787309 15.217382 4.0535551 15.101562 4.0351562 C 14.869926 3.9983585 14.667969 4 14.667969 4 L 14.666016 4 L 12.689453 4.015625 C 12.627209 4.0022422 12.401578 3.962679 12.109375 4.1464844 C 11.821119 4.3278472 11.755405 4.5210949 11.738281 4.5800781 C 11.692794 4.6439545 11.363387 5.1099626 10.908203 5.9199219 C 10.44648 6.7408138 10.13468 6.9632677 10.091797 6.9863281 C 10.082223 6.9738089 10.104634 6.9781695 10.052734 6.9433594 C 10.026664 6.9257944 10.004454 6.9094733 9.9863281 6.6992188 C 9.9681991 6.4889636 9.9882812 6.1556637 9.9882812 5.7675781 C 9.9882812 4.9262453 10.061648 4.4897049 10.019531 4.0703125 C 9.998485 3.8606166 9.9130614 3.6034589 9.7265625 3.4316406 C 9.5400636 3.2598224 9.3370281 3.198678 9.1230469 3.1445312 C 8.7921007 3.0607817 8.3444447 3.0267451 7.6972656 3.0195312 z M 7.6855469 4.0195312 C 8.2943678 4.0263212 8.7178993 4.0730312 8.8769531 4.1132812 C 9.0094919 4.1468193 9.0274316 4.1641792 9.0234375 4.1582031 C 9.0239789 4.1649662 9.0222694 4.1582891 9.0234375 4.1699219 C 9.0405705 4.3405295 8.9882812 4.877911 8.9882812 5.7675781 C 8.9882812 6.1114925 8.9591603 6.4474115 8.9882812 6.7851562 C 9.0174022 7.1229011 9.1372158 7.5330025 9.4941406 7.7734375 L 9.4960938 7.7734375 C 9.4550548 7.7459115 9.9438537 8.1133691 10.414062 7.9433594 C 10.884272 7.7733496 11.253911 7.3442347 11.779297 6.4101562 C 12.243748 5.5837068 12.582031 5.1152344 12.582031 5.1152344 L 12.615234 5.0722656 L 12.636719 5.0214844 C 12.636719 5.0214844 12.630619 5.0211701 12.636719 5.015625 L 14.667969 5 C 14.667969 5 14.808701 5.0017405 14.945312 5.0234375 C 14.950513 5.0242673 14.951911 5.0244906 14.957031 5.0253906 C 14.937801 5.0309506 14.952531 5.0815716 14.816406 5.359375 C 14.642184 5.7150368 14.32527 6.2208049 13.873047 6.8515625 C 13.505746 7.3642783 13.226427 7.6941708 13.019531 7.9355469 C 12.812635 8.176923 12.657079 8.2907049 12.554688 8.5996094 C 12.503488 8.7540616 12.516101 8.9822834 12.587891 9.1308594 C 12.659681 9.2794353 12.746983 9.3633052 12.832031 9.4453125 C 13.002127 9.6093272 13.206747 9.7697695 13.505859 10.060547 L 13.505859 10.0625 C 14.084914 10.625148 14.413277 11.04062 14.597656 11.314453 C 14.689846 11.45137 14.745715 11.551979 14.78125 11.621094 C 14.81678 11.690214 14.791151 11.665744 14.869141 11.798828 C 14.937691 11.919709 14.925111 11.934821 14.925781 11.925781 C 14.860359 11.96355 14.693352 11.99881 14.6875 12 L 12.988281 12.03125 L 12.943359 12.041016 C 12.943359 12.041016 12.945259 12.046517 12.837891 12.029297 C 12.73057 12.012077 12.558722 11.965157 12.337891 11.806641 C 12.071359 11.615417 11.7308 11.170755 11.396484 10.767578 C 11.229326 10.56599 11.063353 10.372833 10.851562 10.214844 C 10.639773 10.056854 10.308737 9.9128854 9.96875 10.025391 L 9.9667969 10.025391 C 9.6748274 10.12219 9.4857571 10.334767 9.3632812 10.537109 C 9.2408056 10.739452 9.1701372 10.94972 9.1191406 11.142578 C 9.0171476 11.528295 9 11.873047 9 11.873047 L 9 11.890625 L 9 11.908203 C 9 11.908203 9.0000082 11.929726 8.9941406 11.964844 C 8.9740489 11.973397 8.9444838 11.990778 8.9277344 12 L 7.7421875 12 L 7.734375 12 C 7.734375 12 6.0811854 12.08636 4.4628906 10.326172 C 2.7277146 8.4348326 1.181867 5.2640129 1.0546875 5.0019531 L 3.0664062 5 C 3.0857303 5.00711 3.1563376 5.0338489 3.1503906 5.0292969 C 3.1032276 4.9931389 3.1738281 5.0761719 3.1738281 5.0761719 L 3.203125 5.1523438 L 3.2558594 5.2148438 C 3.2558594 5.2148438 3.568007 5.5878958 4.0097656 6.3867188 C 4.4816883 7.2403955 4.877292 7.6877719 5.3242188 7.9023438 C 5.7711455 8.1169155 6.2367012 7.9638797 6.4375 7.8496094 L 6.4394531 7.8496094 C 6.8097464 7.6372985 6.8533041 7.3350073 6.9140625 7.0585938 C 6.9748209 6.7821802 6.9980235 6.4824302 7.0097656 6.1953125 C 7.0324186 5.6414017 7.0003405 5.166398 6.9980469 5.1308594 C 6.9979616 5.1198465 6.9967903 4.9844815 6.9570312 4.8359375 C 6.9158024 4.6819019 6.835162 4.4841162 6.6855469 4.2714844 C 6.626035 4.1862286 6.5674018 4.2286227 6.5 4.1679688 C 6.7763665 4.0879047 7.0752562 4.0126996 7.6855469 4.0195312 z" font-weight="400" font-family="sans-serif" white-space="normal" overflow="visible"/>
</svg>